<svg data-v-0dd9719b="" version="1.0" xmlns="http://www.w3.org/2000/svg" xmlns:xlink="http://www.w3.org/1999/xlink" width="100%" height="100%" viewBox="0 0 340.000000 250.000000" preserveAspectRatio="xMidYMid meet" color-interpolation-filters="sRGB" style="margin: auto;"> <rect data-v-0dd9719b="" x="0" y="0" width="100%" height="100%" fill="#fff" fill-opacity="1" class="background"></rect> <rect data-v-0dd9719b="" x="0" y="0" width="100%" height="100%" fill="url(#watermark)" fill-opacity="1" class="watermarklayer"></rect> <g data-v-0dd9719b="" fill="#333333" class="icon-text-wrapper icon-svg-group iconsvg" transform="translate(48.340003967285156,96.91374969482422)"><g class="iconsvg-imagesvg" transform="translate(0,1.6498737335205078)"><g><rect fill="#333333" fill-opacity="0" stroke-width="2" x="0" y="0" width="60" height="52.87275290800141" class="image-rect"></rect> <svg x="0" y="0" width="60" height="52.87275290800141" filtersec="colorsb7994465697" class="image-svg-svg primary" style="overflow: visible;"><svg xmlns="http://www.w3.org/2000/svg" viewBox="0 0 113.4800033569336 100"><g><g><path fill="#02035e" d="M84.94 62.54l-28.2-12.38-28.19 12.38L0 75.08 56.74 100l56.74-24.92-28.54-12.54z"></path><path fill="#00b0d8" opacity=".8" d="M84.94 37.46l-28.2-12.38-28.19 12.38L0 50l28.55 12.54 28.19 12.38 28.2-12.38L113.48 50 84.94 37.46z"></path><path fill="#00b0d8" opacity=".5" d="M56.74 0L0 24.92l28.55 12.54 28.19 12.38 28.2-12.38 28.54-12.54L56.74 0z"></path></g></g></svg></svg> <!----></g></g> <g transform="translate(67,0)"><g data-gra="path-name" fill-rule="" class="tp-name iconsvg-namesvg" transform="translate(0,0)"><g transform="scale(1)"><g><path d="M23.49 3.78L23.49 3.78 8.05 3.78 8.05 0.81 22 0.81 22-19.26 2.11-19.26 2.11-22.23 42.39-22.23 42.39-19.26 24.97-19.26 24.97 2.29Q24.97 2.92 24.55 3.35 24.12 3.78 23.49 3.78L23.49 3.78ZM42.25-24.16L42.25-24.16 39.28-24.16 39.28-30.42 5.54-30.42 5.54-24.16 2.56-24.16 2.56-31.86Q2.56-32.49 2.99-32.92 3.42-33.34 4.05-33.34L4.05-33.34 20.93-33.34 20.29-35.59 23.13-36.41 24.03-33.34 40.77-33.34Q41.4-33.34 41.83-32.92 42.25-32.49 42.25-31.86L42.25-31.86 42.25-24.16ZM86.17 3.96L86.17 3.96 75.78-4.91 63.9 4.05 62.14 1.67 73.48-6.88 62.73-16.11 64.66-18.36 75.87-8.69 83.38-14.35 83.38-19.48 61.97-19.48 61.97-5.17Q61.97-5.04 61.88-4.77L61.88-4.77 59.22 4.27 56.38 3.46 58.99-5.4 58.99-31.95Q58.99-32.58 59.42-33.01 59.85-33.44 60.48-33.44L60.48-33.44 71.73-33.44 71.73-36.23 74.7-36.23 74.7-33.44 86-33.44Q86.67-33.44 87.16-32.94L87.16-32.94Q87.57-32.4 87.48-31.72L87.48-31.72 86.13-24.25 83.2-24.75 84.24-30.51 74.7-30.51 74.7-22.41 84.87-22.41Q85.5-22.41 85.93-22 86.35-21.6 86.35-20.97L86.35-20.97 86.35-13.63Q86.35-12.91 85.77-12.42L85.77-12.42 78.21-6.71 88.11 1.75 86.17 3.96ZM50.8 4.14L50.8 4.14 47.97 3.28 54.23-17.23 47.38-22.77 49.27-25.06 56.84-18.9Q57.64-18.31 57.33-17.32L57.33-17.32 50.8 4.14ZM58.19-29.7L56.25-27.45 47.88-34.65 49.81-36.9 58.19-29.7ZM61.97-30.51L61.97-22.41 71.73-22.41 71.73-30.51 61.97-30.51ZM132.21-6.43L132.21-6.43 104.13-6.43 104.13 0.63 114.39-1.67 115.06 1.17 102.96 3.96 102.64 3.96Q102.06 3.96 101.7 3.65L101.7 3.65Q101.16 3.19 101.16 2.52L101.16 2.52 101.16-6.43 96.7-6.43 96.7-1.53Q96.7-1.21 96.57-0.94L96.57-0.94 94.32 3.96 91.62 2.75 93.73-1.89 93.73-17.23Q93.73-17.86 94.16-18.29 94.59-18.72 95.22-18.72L95.22-18.72 131.94-18.72 131.94-15.75 96.7-15.75 96.7-9.36 132.21-9.36 132.21-6.43ZM132.07-21.51L132.07-21.51 129.1-21.51 129.1-28.71 113.98-28.71 113.98-20.02 111.02-20.02 111.02-28.71 95.89-28.71 95.89-21.51 92.92-21.51 92.92-30.2Q92.92-30.82 93.35-31.25 93.78-31.68 94.41-31.68L94.41-31.68 111.02-31.68 111.02-33.34 92.34-33.34 92.34-36.27 132.66-36.27 132.66-33.34 113.98-33.34 113.98-31.68 130.59-31.68Q131.22-31.68 131.65-31.25 132.07-30.82 132.07-30.2L132.07-30.2 132.07-21.51ZM108.9-27.31L108.9-24.34 97.97-24.34 97.97-27.31 108.9-27.31ZM127.03-27.31L127.03-24.34 116.1-24.34 116.1-27.31 127.03-27.31ZM108.9-23.04L108.9-20.11 97.97-20.11 97.97-23.04 108.9-23.04ZM127.03-23.04L127.03-20.11 116.1-20.11 116.1-23.04 127.03-23.04ZM130.5-14.04L130.5-11.07 97.92-11.07 97.92-14.04 130.5-14.04ZM132.93 1.57L131.85 4.32 111.83-3.51 112.91-6.25 123.53-2.07 126.85-5.98 129.1-4.05 126.41-0.94 132.93 1.57ZM177.66 3.96L177.66 3.96 147.15 3.96Q146.75 3.96 146.34 3.69L146.34 3.69 142.92 1.48 139.81 4.32 137.84 2.11 141.34-0.94 141.34-22.59 138.06-22.59 138.06-25.52 142.78-25.52Q143.41-25.52 143.84-25.09 144.27-24.66 144.27-24.03L144.27-24.03 144.27-1.08 147.6 0.99 177.66 0.99 177.66 3.96ZM144.22-27.54L141.34-26.91 139.37-36.13 142.25-36.77 144.22-27.54ZM178.43-3.33L176.4-1.17 162.31-14.58 148.28-1.17 146.25-3.33 160.88-17.23 160.88-25.74 147.01-25.74 147.01-28.71 160.88-28.71 160.88-36.27 163.8-36.27 163.8-28.71 177.66-28.71 177.66-25.74 163.8-25.74 163.8-17.23 178.43-3.33Z" transform="translate(-2.109999895095825, 36.900001525878906)"></path></g> <!----> <!----> <!----> <!----> <!----> <!----> <!----></g></g> <g data-gra="path-slogan" fill-rule="" class="tp-slogan iconsvg-slogansvg" fill="#333333" transform="translate(5,47.220001220703125)"><rect x="0" height="1" y="3.9750003814697266" width="30.8699951171875"></rect> <rect height="1" y="3.9750003814697266" width="30.8699951171875" x="135.4499969482422"></rect> <g transform="translate(33.8699951171875,0)"><g transform="scale(1)"><path d="M2.30-8.58L6.61-1.64L6.61-8.58L7.73-8.58L7.73 0L6.42 0L2.06-6.94L2.02-6.94L2.02 0L0.89 0L0.89-8.58L2.30-8.58ZM9.70-8.58L10.88-8.58L10.88 0L9.70 0L9.70-8.58ZM14.25-8.58L18.56-1.64L18.56-8.58L19.69-8.58L19.69 0L18.38 0L14.02-6.94L13.97-6.94L13.97 0L12.84 0L12.84-8.58L14.25-8.58ZM27.89-3.61L25.27-3.61L25.27-4.59L29.02-4.59L29.02 0L28.27 0L27.98-1.08Q27 0.09 25.17 0.14L25.17 0.14Q23.44 0.14 22.50-0.75L22.50-0.75Q21.09-2.06 21.14-4.36L21.14-4.36Q21.47-8.63 25.22-8.81L25.22-8.81Q28.41-8.63 28.88-6L28.88-6L27.75-6Q27.28-7.78 25.17-7.83L25.17-7.83Q22.50-7.64 22.36-4.31L22.36-4.31Q22.36-0.75 25.22-0.75L25.22-0.75Q26.25-0.75 27-1.31L27-1.31Q27.94-2.06 27.89-3.61L27.89-3.61ZM34.03-7.64L31.97-7.64L31.97-4.97L34.03-4.97Q35.86-4.92 35.81-6.38L35.81-6.38Q35.81-7.64 34.03-7.64L34.03-7.64ZM34.50 0L30.80 0L30.80-8.58L34.59-8.58Q36.89-8.48 36.98-6.42L36.98-6.42Q36.98-5.16 35.86-4.64L35.86-4.64Q37.45-4.08 37.45-2.53L37.45-2.53Q37.31-0.09 34.50 0L34.50 0ZM34.22-3.98L31.97-3.98L31.97-0.98L34.45-0.98Q36.23-1.03 36.28-2.53L36.28-2.53Q36.28-3.98 34.22-3.98L34.22-3.98ZM45.56-4.27L45.56-4.27Q45.38-7.64 42.56-7.83L42.56-7.83Q39.70-7.69 39.56-4.27L39.56-4.27Q39.70-0.94 42.56-0.80L42.56-0.80Q45.38-0.98 45.56-4.27ZM46.73-4.27L46.73-4.27Q46.45 0 42.56 0.14L42.56 0.14Q38.63 0 38.34-4.27L38.34-4.27Q38.58-8.72 42.56-8.81L42.56-8.81Q46.45-8.67 46.73-4.27ZM52.27-1.03L57.56-1.03L57.56 0L50.81 0L50.81-0.94L56.06-7.59L51.19-7.59L51.19-8.58L57.56-8.58L57.56-7.59L52.27-1.03ZM59.86-5.06L64.36-5.06L64.36-8.58L65.53-8.58L65.53 0L64.36 0L64.36-3.98L59.86-3.98L59.86 0L58.69 0L58.69-8.58L59.86-8.58L59.86-5.06ZM68.63-1.03L73.78-1.03L73.78 0L67.45 0L67.45-8.58L73.69-8.58L73.69-7.59L68.63-7.59L68.63-4.92L73.31-4.92L73.31-3.89L68.63-3.89L68.63-1.03ZM76.69-8.58L81-1.64L81-8.58L82.13-8.58L82.13 0L80.81 0L76.45-6.94L76.41-6.94L76.41 0L75.28 0L75.28-8.58L76.69-8.58ZM87.42 0L83.95 0L83.95-8.58L87.47-8.58Q90.94-8.39 91.08-4.41L91.08-4.41Q90.89-0.09 87.42 0L87.42 0ZM87.28-7.64L85.13-7.64L85.13-0.98L87.38-0.98Q89.81-1.13 89.91-4.31L89.91-4.31Q89.86-7.55 87.28-7.64L87.28-7.64ZM98.20 0L97.36-2.48L93.89-2.48L93 0L91.83 0L95.06-8.58L96.38-8.58L99.47 0L98.20 0ZM95.63-7.31L94.27-3.52L96.94-3.52L95.67-7.31L95.63-7.31Z" transform="translate(-0.890625, 8.8125)"></path></g></g></g></g></g><defs v-gra="od"></defs></svg>